<mxfile host="app.diagrams.net" modified="2021-12-28T21:38:51.181Z" agent="5.0 (Macintosh; Intel Mac OS X 10_15_7) AppleWebKit/537.36 (KHTML, like Gecko) Chrome/96.0.4664.110 Safari/537.36" etag="VTUyXd7NanVdEKaDwzxx" version="16.1.0" type="github">
  <diagram id="prtHgNgQTEPvFCAcTncT" name="Page-1">
    <mxGraphModel dx="1017" dy="561" grid="1" gridSize="10" guides="1" tooltips="1" connect="1" arrows="1" fold="1" page="1" pageScale="1" pageWidth="827" pageHeight="1169" math="0" shadow="0">
      <root>
        <mxCell id="0" />
        <mxCell id="1" parent="0" />
        <mxCell id="dNxyNK7c78bLwvsdeMH5-19" value="Gym Member Signup for Class" style="swimlane;html=1;childLayout=stackLayout;resizeParent=1;resizeParentMax=0;horizontal=0;startSize=20;horizontalStack=0;" parent="1" vertex="1">
          <mxGeometry x="120" y="120" width="1210" height="350" as="geometry" />
        </mxCell>
        <mxCell id="dNxyNK7c78bLwvsdeMH5-20" value="Gym Member" style="swimlane;html=1;startSize=20;horizontal=0;" parent="dNxyNK7c78bLwvsdeMH5-19" vertex="1">
          <mxGeometry x="20" width="1190" height="120" as="geometry" />
        </mxCell>
        <mxCell id="S295N-My2tErDRJMjQ0c-3" value="" style="edgeStyle=orthogonalEdgeStyle;rounded=0;orthogonalLoop=1;jettySize=auto;html=1;" edge="1" parent="dNxyNK7c78bLwvsdeMH5-20" source="S295N-My2tErDRJMjQ0c-1" target="S295N-My2tErDRJMjQ0c-2">
          <mxGeometry relative="1" as="geometry" />
        </mxCell>
        <mxCell id="S295N-My2tErDRJMjQ0c-1" value="Sign up for Class" style="html=1;dashed=0;whitespace=wrap;shape=mxgraph.dfd.start" vertex="1" parent="dNxyNK7c78bLwvsdeMH5-20">
          <mxGeometry x="40" y="45" width="100" height="35" as="geometry" />
        </mxCell>
        <mxCell id="S295N-My2tErDRJMjQ0c-5" value="" style="edgeStyle=orthogonalEdgeStyle;rounded=0;orthogonalLoop=1;jettySize=auto;html=1;" edge="1" parent="dNxyNK7c78bLwvsdeMH5-20" source="S295N-My2tErDRJMjQ0c-2">
          <mxGeometry relative="1" as="geometry">
            <mxPoint x="410" y="62.5" as="targetPoint" />
          </mxGeometry>
        </mxCell>
        <mxCell id="S295N-My2tErDRJMjQ0c-2" value="Login to Wodify" style="whiteSpace=wrap;html=1;dashed=0;" vertex="1" parent="dNxyNK7c78bLwvsdeMH5-20">
          <mxGeometry x="210" y="32.5" width="120" height="60" as="geometry" />
        </mxCell>
        <mxCell id="S295N-My2tErDRJMjQ0c-7" value="" style="edgeStyle=orthogonalEdgeStyle;rounded=0;orthogonalLoop=1;jettySize=auto;html=1;" edge="1" parent="dNxyNK7c78bLwvsdeMH5-20" target="S295N-My2tErDRJMjQ0c-9">
          <mxGeometry relative="1" as="geometry">
            <mxPoint x="530" y="62.5" as="sourcePoint" />
            <mxPoint x="610" y="62.5" as="targetPoint" />
          </mxGeometry>
        </mxCell>
        <mxCell id="S295N-My2tErDRJMjQ0c-8" value="Select Class" style="shape=process;whiteSpace=wrap;html=1;backgroundOutline=1;" vertex="1" parent="dNxyNK7c78bLwvsdeMH5-20">
          <mxGeometry x="410" y="30" width="120" height="60" as="geometry" />
        </mxCell>
        <mxCell id="S295N-My2tErDRJMjQ0c-9" value="Sign up" style="rounded=0;whiteSpace=wrap;html=1;" vertex="1" parent="dNxyNK7c78bLwvsdeMH5-20">
          <mxGeometry x="580" y="32.5" width="120" height="60" as="geometry" />
        </mxCell>
        <mxCell id="dNxyNK7c78bLwvsdeMH5-21" value="Coach" style="swimlane;html=1;startSize=20;horizontal=0;" parent="dNxyNK7c78bLwvsdeMH5-19" vertex="1">
          <mxGeometry x="20" y="120" width="1190" height="230" as="geometry" />
        </mxCell>
        <mxCell id="S295N-My2tErDRJMjQ0c-15" value="" style="edgeStyle=orthogonalEdgeStyle;rounded=0;orthogonalLoop=1;jettySize=auto;html=1;" edge="1" parent="dNxyNK7c78bLwvsdeMH5-21" source="S295N-My2tErDRJMjQ0c-13" target="S295N-My2tErDRJMjQ0c-14">
          <mxGeometry relative="1" as="geometry" />
        </mxCell>
        <mxCell id="S295N-My2tErDRJMjQ0c-13" value="Select Class Coaching" style="rounded=0;whiteSpace=wrap;html=1;" vertex="1" parent="dNxyNK7c78bLwvsdeMH5-21">
          <mxGeometry x="580" y="30" width="120" height="60" as="geometry" />
        </mxCell>
        <mxCell id="S295N-My2tErDRJMjQ0c-19" value="Yes" style="edgeStyle=orthogonalEdgeStyle;rounded=0;orthogonalLoop=1;jettySize=auto;html=1;" edge="1" parent="dNxyNK7c78bLwvsdeMH5-21" source="S295N-My2tErDRJMjQ0c-14" target="S295N-My2tErDRJMjQ0c-18">
          <mxGeometry relative="1" as="geometry" />
        </mxCell>
        <mxCell id="S295N-My2tErDRJMjQ0c-23" value="" style="edgeStyle=orthogonalEdgeStyle;rounded=0;orthogonalLoop=1;jettySize=auto;html=1;" edge="1" parent="dNxyNK7c78bLwvsdeMH5-21" source="S295N-My2tErDRJMjQ0c-14" target="S295N-My2tErDRJMjQ0c-22">
          <mxGeometry relative="1" as="geometry">
            <Array as="points">
              <mxPoint x="840" y="185" />
            </Array>
          </mxGeometry>
        </mxCell>
        <mxCell id="S295N-My2tErDRJMjQ0c-25" value="No" style="edgeLabel;html=1;align=center;verticalAlign=middle;resizable=0;points=[];" vertex="1" connectable="0" parent="S295N-My2tErDRJMjQ0c-23">
          <mxGeometry x="-0.3561" y="-2" relative="1" as="geometry">
            <mxPoint as="offset" />
          </mxGeometry>
        </mxCell>
        <mxCell id="S295N-My2tErDRJMjQ0c-14" value="Gym Member present?" style="rhombus;whiteSpace=wrap;html=1;rounded=0;" vertex="1" parent="dNxyNK7c78bLwvsdeMH5-21">
          <mxGeometry x="800" y="20" width="80" height="80" as="geometry" />
        </mxCell>
        <mxCell id="S295N-My2tErDRJMjQ0c-24" value="" style="edgeStyle=orthogonalEdgeStyle;rounded=0;orthogonalLoop=1;jettySize=auto;html=1;" edge="1" parent="dNxyNK7c78bLwvsdeMH5-21" source="S295N-My2tErDRJMjQ0c-18" target="S295N-My2tErDRJMjQ0c-22">
          <mxGeometry relative="1" as="geometry" />
        </mxCell>
        <mxCell id="S295N-My2tErDRJMjQ0c-18" value="Sign in Gym member" style="whiteSpace=wrap;html=1;rounded=0;" vertex="1" parent="dNxyNK7c78bLwvsdeMH5-21">
          <mxGeometry x="940" y="30" width="120" height="60" as="geometry" />
        </mxCell>
        <mxCell id="S295N-My2tErDRJMjQ0c-22" value="Class Begins" style="html=1;dashed=0;whitespace=wrap;shape=mxgraph.dfd.start" vertex="1" parent="dNxyNK7c78bLwvsdeMH5-21">
          <mxGeometry x="960" y="170" width="80" height="30" as="geometry" />
        </mxCell>
        <mxCell id="S295N-My2tErDRJMjQ0c-11" value="" style="edgeStyle=orthogonalEdgeStyle;rounded=0;orthogonalLoop=1;jettySize=auto;html=1;" edge="1" parent="dNxyNK7c78bLwvsdeMH5-19" source="S295N-My2tErDRJMjQ0c-9">
          <mxGeometry relative="1" as="geometry">
            <mxPoint x="660" y="150" as="targetPoint" />
          </mxGeometry>
        </mxCell>
      </root>
    </mxGraphModel>
  </diagram>
</mxfile>
